<?xml version="1.0" encoding="UTF-8" standalone="no"?>
<svg
   xmlns:dc="http://purl.org/dc/elements/1.1/"
   xmlns:cc="http://creativecommons.org/ns#"
   xmlns:rdf="http://www.w3.org/1999/02/22-rdf-syntax-ns#"
   xmlns:svg="http://www.w3.org/2000/svg"
   xmlns="http://www.w3.org/2000/svg"
   xmlns:sodipodi="http://sodipodi.sourceforge.net/DTD/sodipodi-0.dtd"
   xmlns:inkscape="http://www.inkscape.org/namespaces/inkscape"
   width="445.65344"
   height="837.93158"
   version="1.1"
   id="svg28"
   sodipodi:docname="big-rocket-blast-off-fat.svg"
   viewBox="0 0 445.65344 837.93158"
   inkscape:version="0.92pre1_64bit r15016">
  <defs
     id="defs32" />
  <sodipodi:namedview
     pagecolor="#ffffff"
     bordercolor="#666666"
     borderopacity="1"
     objecttolerance="10"
     gridtolerance="10"
     guidetolerance="10"
     inkscape:pageopacity="0"
     inkscape:pageshadow="2"
     inkscape:window-width="1366"
     inkscape:window-height="745"
     id="namedview30"
     showgrid="false"
     fit-margin-top="10"
     fit-margin-left="10"
     fit-margin-right="10"
     fit-margin-bottom="10"
     inkscape:zoom="0.7065016"
     inkscape:cx="222.82672"
     inkscape:cy="418.96579"
     inkscape:window-x="-8"
     inkscape:window-y="-8"
     inkscape:window-maximized="1"
     inkscape:current-layer="svg28" />
  <title
     id="title2">Big Rocket Blast Off</title>
  <metadata
     id="metadata7">image/svg+xml<rdf:RDF>
  <cc:Work
     rdf:about="">
    <dc:format>image/svg+xml</dc:format>
    <dc:type
       rdf:resource="http://purl.org/dc/dcmitype/StillImage" />
    <dc:title>Big Rocket Blast Off</dc:title>
  </cc:Work>
</rdf:RDF>
</metadata>
  <path
     style="fill:#bfbfbf;fill-rule:evenodd;stroke:#000000;stroke-width:20;stroke-linejoin:round;stroke-miterlimit:4"
     inkscape:connector-curvature="0"
     stroke-miterlimit="4"
     id="path3297"
     d="m 132.28935,657.99287 183.20472,-2.18228 C 335.6675,444.97076 401.40749,215.47604 215.64246,19.999529 34.99833,219.8412 100.14375,448.83706 132.28977,657.9933 Z" />
  <path
     style="stroke-width:20;marker-start:none;marker-mid:none;marker-end:none"
     inkscape:connector-curvature="0"
     d="m 256.10975,173.16824 c -7.52631,18.57367 -29.14859,27.71144 -48.29407,20.40973 -19.14566,-7.30174 -28.56466,-28.27788 -21.03811,-46.85162 15.32443,-15.53145 40.72573,-16.07039 56.73552,-1.20372 16.00965,14.86662 16.56532,39.50923 1.24075,55.04077 z"
     id="svg_2" />
  <path
     style="stroke-width:20;marker-start:none;marker-mid:none;marker-end:none"
     inkscape:connector-curvature="0"
     d="m 256.11549,173.16338 c -7.5252,18.57521 -29.14734,27.71528 -48.29447,20.41488 -19.14715,-7.30035 -28.56866,-28.27672 -21.04345,-46.85191 15.32443,-15.53145 40.72573,-16.07039 56.73551,-1.20372 16.00966,14.86662 16.56533,39.50923 1.24076,55.04077 z"
     id="svg_3" />
  <path
     style="stroke-width:20;marker-start:none;marker-mid:none;marker-end:none"
     inkscape:connector-curvature="0"
     d="m 256.11549,173.16338 c -7.5252,18.57521 -29.14734,27.71528 -48.29447,20.41488 -19.14715,-7.30035 -28.56866,-28.27672 -21.04345,-46.85191 15.32443,-15.53145 40.72573,-16.07039 56.73551,-1.20372 16.00966,14.86662 16.56533,39.50923 1.24076,55.04077 z"
     id="svg_4" />
  <path
     style="stroke-width:20;marker-start:none;marker-mid:none;marker-end:none"
     inkscape:connector-curvature="0"
     d="m 256.11549,173.16338 c -7.5252,18.57521 -29.14734,27.71528 -48.29447,20.41488 -19.14715,-7.30035 -28.56866,-28.27672 -21.04345,-46.85191 15.32443,-15.53145 40.72573,-16.07039 56.73551,-1.20372 16.00966,14.86662 16.56533,39.50923 1.24076,55.04077 z"
     id="svg_5" />
  <path
     style="stroke-width:20;marker-start:none;marker-mid:none;marker-end:none"
     inkscape:connector-curvature="0"
     d="m 256.11549,173.16338 c -7.5252,18.57521 -29.14734,27.71528 -48.29447,20.41488 -19.14715,-7.30035 -28.56866,-28.27672 -21.04345,-46.85191 15.32443,-15.53145 40.72573,-16.07039 56.73551,-1.20372 16.00966,14.86662 16.56533,39.50923 1.24076,55.04077 z"
     id="svg_6" />
  <path
     style="stroke-width:20;marker-start:none;marker-mid:none;marker-end:none"
     inkscape:connector-curvature="0"
     d="m 256.11549,173.16338 c -7.5252,18.57521 -29.14734,27.71528 -48.29447,20.41488 -19.14715,-7.30035 -28.56866,-28.27672 -21.04345,-46.85191 15.32443,-15.53145 40.72573,-16.07039 56.73551,-1.20372 16.00966,14.86662 16.56533,39.50923 1.24076,55.04077 z"
     id="svg_7" />
  <path
     style="fill:#aaffff;fill-rule:evenodd;stroke:#000000;stroke-width:20;stroke-linejoin:round;stroke-miterlimit:4;stroke-dashoffset:0;marker-start:none;marker-mid:none;marker-end:none"
     inkscape:connector-curvature="0"
     stroke-miterlimit="4"
     d="m 256.1153,173.16339 c 0.5334,21.37645 -17.09854,38.92078 -39.38183,39.18616 -22.28336,0.26542 -40.77994,-16.84841 -41.31333,-38.22496 -0.53332,-21.37642 17.09858,-38.92075 39.3819,-39.18617 22.28332,-0.26543 40.77991,16.84845 41.31326,38.22497 z"
     id="path3301" />
  <path
     style="stroke-width:20;marker-start:none;marker-mid:none;marker-end:none"
     inkscape:connector-curvature="0"
     d="m 257.53931,283.58136 c -7.52484,18.57566 -29.14679,27.71654 -48.29434,20.41663 -19.14776,-7.29988 -28.5701,-28.27614 -21.04541,-46.85182 15.32453,-15.53148 40.72592,-16.07036 56.73586,-1.20364 16.00962,14.86679 16.56509,39.50951 1.24063,55.04101 z"
     id="svg_8" />
  <path
     style="stroke-width:20;marker-start:none;marker-mid:none;marker-end:none"
     inkscape:connector-curvature="0"
     d="m 257.53072,283.58737 c -7.52621,18.5734 -29.14793,27.71103 -48.29319,20.40945 -19.1453,-7.30149 -28.56434,-28.27725 -21.03797,-46.85065 15.32453,-15.53148 40.72592,-16.07036 56.73586,-1.20364 16.00962,14.86686 16.56509,39.50951 1.24063,55.04101 l 11.35467,-27.39617 z"
     id="svg_9" />
  <path
     style="fill:#aaffff;fill-rule:evenodd;stroke:#000000;stroke-width:20;stroke-linejoin:round;stroke-miterlimit:4;stroke-dashoffset:0;marker-start:none;marker-mid:none;marker-end:none"
     inkscape:connector-curvature="0"
     stroke-miterlimit="4"
     id="path3303"
     d="m 257.53066,283.58727 c 0.53327,21.37658 -17.09845,38.92081 -39.38173,39.18623 -22.28344,0.26552 -40.78,-16.8484 -41.31347,-38.22489 -0.53324,-21.37661 17.09848,-38.92079 39.3818,-39.18624 22.28337,-0.26552 40.78011,16.84835 41.3134,38.2249 z" />
  <path
     style="stroke-width:20;marker-start:none;marker-mid:none;marker-end:none"
     inkscape:connector-curvature="0"
     d="m 258.98737,395.50461 c -7.52484,18.57465 -29.14611,27.71449 -48.29284,20.41446 -19.14658,-7.29997 -28.56778,-28.27557 -21.043,-46.85016 15.32458,-15.53152 40.72595,-16.07037 56.73588,-1.20365 16.00968,14.86685 16.56523,39.50949 1.24063,55.04103 z"
     id="svg_10" />
  <path
     style="stroke-width:20;marker-start:none;marker-mid:none;marker-end:none"
     inkscape:connector-curvature="0"
     d="m 258.98115,395.50625 c -7.52535,18.57293 -29.14566,27.7111 -48.29044,20.41064 -19.14496,-7.30047 -28.56433,-28.27505 -21.03918,-46.84796 15.32458,-15.53154 40.72595,-16.07038 56.73588,-1.20367 16.00968,14.86687 16.56523,39.50949 1.24063,55.04103 z"
     id="svg_11" />
  <path
     style="fill:#aaffff;fill-rule:evenodd;stroke:#000000;stroke-width:20;stroke-linejoin:round;stroke-miterlimit:4;stroke-dashoffset:0;marker-start:none;marker-mid:none;marker-end:none"
     inkscape:connector-curvature="0"
     stroke-miterlimit="4"
     d="m 258.98128,395.5061 c 0.53336,21.37643 -17.09849,38.92076 -39.38178,39.18616 -22.28336,0.26541 -40.78,-16.84843 -41.31351,-38.22488 -0.53327,-21.37659 17.09851,-38.92077 39.38199,-39.1863 22.28328,-0.26545 40.77986,16.84856 41.3133,38.22502 z"
     id="path3305" />
  <path
     style="fill:#ff0000;fill-rule:evenodd;stroke:#000000;stroke-width:20;stroke-linejoin:round;stroke-miterlimit:4"
     inkscape:connector-curvature="0"
     stroke-miterlimit="4"
     id="path3307"
     d="M 132.30085,659.54106 80.29258,761.42851 C 46.96107,696.32246 8.8428404,607.42744 23.17844,551.0133 c 9.41892,-37.06614 77.79291,-81.22136 77.79291,-81.22136 z" />
  <path
     style="fill:#ff0000;fill-rule:evenodd;stroke:#000000;stroke-width:20;stroke-linejoin:round;stroke-miterlimit:4"
     inkscape:connector-curvature="0"
     stroke-miterlimit="4"
     d="M 315.4376,650.26869 370.06883,750.8857 C 401.7038,685.00578 437.50791,595.23022 421.71568,539.17485 411.33945,502.34471 341.84287,459.83189 341.84287,459.83189 Z"
     id="path3309" />
  <path
     stroke-linecap="null"
     d="m 144.70072,661.26546 c 0,1.59866 -24.88034,119.89852 -24.88034,121.49713 0,1.59866 65.31095,-41.56479 65.31095,-41.56479 0,0 32.65542,76.73501 32.65542,76.73501 0,0 45.09563,-76.73501 45.09563,-76.73501 0,0 79.30607,79.93231 79.30607,73.53775 0,-6.39463 -35.7655,-180.64707 -37.32051,-161.46332 -1.55504,19.18375 -160.16722,7.99322 -160.16722,7.99323 z"
     id="svg_12"
     inkscape:connector-curvature="0"
     style="fill:#ff7f00;stroke:#000000;stroke-width:20;stroke-linejoin:round;stroke-dasharray:none" />
</svg>
